<svg xmlns="http://www.w3.org/2000/svg" viewBox="0 12.75 320 36.75" data-asc="0.975" width="170.87999725341797" height="36.75">
<defs/><g><g fill="#fff">

<circle cx="10" cy="35" r="8"/>
<g transform="translate(35, 0)">

<path d="M28.83 25.02Q28.83 27.88 28.14 30.98Q27.44 34.08 26.20 37.06Q24.95 40.04 23.22 42.66Q21.48 45.29 19.41 47.19L16.31 45.51Q16.97 44.29 17.55 42.77Q18.14 41.26 18.62 39.56Q19.09 37.87 19.47 36.06Q19.85 34.25 20.10 32.48Q20.36 30.71 20.50 29.04Q20.63 27.37 20.63 25.93Q20.63 24.98 20.56 23.89Q20.48 22.80 20.25 21.72Q20.02 20.63 19.63 19.63Q19.24 18.63 18.59 17.87Q17.94 17.11 17.03 16.65Q16.11 16.19 14.87 16.19Q13.65 16.19 12.70 16.74Q11.74 17.29 11.01 18.18Q10.28 19.07 9.75 20.21Q9.23 21.36 8.90 22.57Q8.57 23.78 8.42 24.95Q8.28 26.12 8.28 27.05L8.28 41.19L0 41.19L0 12.99L3.17 12.99L6.96 19.56Q7.64 17.92 8.67 16.58Q9.69 15.23 10.99 14.28Q12.28 13.33 13.85 12.82Q15.43 12.30 17.26 12.30Q20.19 12.30 22.36 13.26Q24.54 14.21 25.98 15.91Q27.42 17.60 28.13 19.93Q28.83 22.27 28.83 25.02ZM60.33 1.39L55.66 9.11Q55.59 8.18 55.32 6.97Q55.05 5.76 54.43 4.69Q53.81 3.61 52.72 2.87Q51.64 2.12 49.95 2.12Q48.22 2.12 47.17 2.81Q46.12 3.49 45.56 4.86Q45.00 6.23 44.80 8.25Q44.60 10.28 44.60 12.96L53.15 12.96L53.15 16.24L44.60 16.24L44.60 41.19L36.33 41.19L36.33 16.24L31.20 16.24L31.20 12.96L36.33 12.96Q36.33 9.08 37.16 6.30Q37.99 3.52 39.67 1.72Q41.36-0.07 43.91-0.92Q46.46-1.76 49.88-1.76Q51.93-1.76 53.55-1.48Q55.18-1.20 56.43-0.74Q57.69-0.29 58.64 0.27Q59.59 0.83 60.33 1.39ZM81.37 15.48L76.73 23.17Q76.44 22.19 75.98 20.97Q75.51 19.75 74.83 18.69Q74.15 17.63 73.19 16.91Q72.24 16.19 71.00 16.19Q69.85 16.19 69.01 16.77Q68.16 17.36 67.58 18.30Q66.99 19.24 66.61 20.42Q66.24 21.61 66.03 22.81Q65.82 24.02 65.75 25.13Q65.67 26.25 65.67 27.05L65.67 41.19L57.40 41.19L57.40 12.99L60.57 12.99L63.92 19.56Q64.60 17.97 65.48 16.64Q66.36 15.31 67.50 14.34Q68.65 13.38 70.10 12.84Q71.56 12.30 73.39 12.30Q74.34 12.30 75.51 12.46Q76.68 12.62 77.81 13.00Q78.93 13.38 79.88 13.99Q80.83 14.60 81.37 15.48ZM90.87 27.81Q92.38 28.15 93.90 28.34Q95.41 28.54 96.95 28.54Q98.56 28.54 99.94 28.23Q101.32 27.93 102.33 27.21Q103.34 26.49 103.93 25.29Q104.52 24.10 104.52 22.31Q104.52 20.87 104.13 19.68Q103.74 18.48 102.97 17.63Q102.20 16.77 101.07 16.30Q99.95 15.82 98.46 15.82Q97.07 15.82 95.96 16.33Q94.85 16.85 94.01 17.71Q93.16 18.58 92.57 19.73Q91.97 20.87 91.58 22.12Q91.19 23.36 91.02 24.63Q90.84 25.90 90.84 27.03Q90.84 27.22 90.84 27.42Q90.84 27.61 90.87 27.81M111.21 22.24Q111.21 23.97 110.64 25.33Q110.08 26.68 109.12 27.71Q108.15 28.74 106.88 29.44Q105.62 30.15 104.17 30.60Q102.73 31.05 101.21 31.25Q99.68 31.45 98.24 31.45Q96.41 31.45 94.63 31.19Q92.85 30.93 91.11 30.37Q91.38 31.98 91.97 33.44Q92.55 34.89 93.53 35.97Q94.51 37.06 95.94 37.70Q97.36 38.33 99.32 38.33Q100.61 38.33 101.78 37.94Q102.95 37.55 103.93 36.84Q104.91 36.13 105.65 35.16Q106.40 34.18 106.86 32.98L110.42 34.30Q109.62 36.23 108.22 37.63Q106.81 39.04 105.04 39.95Q103.27 40.87 101.28 41.31Q99.29 41.75 97.34 41.75Q94.12 41.75 91.38 40.66Q88.65 39.58 86.67 37.62Q84.69 35.67 83.57 32.96Q82.45 30.25 82.45 27.03Q82.45 23.80 83.57 21.09Q84.69 18.38 86.67 16.43Q88.65 14.48 91.38 13.39Q94.12 12.30 97.34 12.30Q98.90 12.30 100.54 12.52Q102.17 12.74 103.71 13.22Q105.25 13.70 106.62 14.45Q107.98 15.21 109.00 16.32Q110.01 17.43 110.61 18.90Q111.21 20.36 111.21 22.24ZM123.14 27.81Q124.66 28.15 126.17 28.34Q127.69 28.54 129.22 28.54Q130.83 28.54 132.21 28.23Q133.59 27.93 134.61 27.21Q135.62 26.49 136.21 25.29Q136.79 24.10 136.79 22.31Q136.79 20.87 136.40 19.68Q136.01 18.48 135.24 17.63Q134.47 16.77 133.35 16.30Q132.23 15.82 130.74 15.82Q129.35 15.82 128.23 16.33Q127.12 16.85 126.28 17.71Q125.44 18.58 124.84 19.73Q124.24 20.87 123.85 22.12Q123.46 23.36 123.29 24.63Q123.12 25.90 123.12 27.03Q123.12 27.22 123.12 27.42Q123.12 27.61 123.14 27.81M143.48 22.24Q143.48 23.97 142.92 25.33Q142.36 26.68 141.39 27.71Q140.43 28.74 139.16 29.44Q137.89 30.15 136.45 30.60Q135.01 31.05 133.48 31.25Q131.96 31.45 130.52 31.45Q128.69 31.45 126.90 31.19Q125.12 30.93 123.39 30.37Q123.66 31.98 124.24 33.44Q124.83 34.89 125.81 35.97Q126.78 37.06 128.21 37.70Q129.64 38.33 131.59 38.33Q132.89 38.33 134.06 37.94Q135.23 37.55 136.21 36.84Q137.18 36.13 137.93 35.16Q138.67 34.18 139.14 32.98L142.70 34.30Q141.89 36.23 140.49 37.63Q139.09 39.04 137.32 39.95Q135.55 40.87 133.56 41.31Q131.57 41.75 129.61 41.75Q126.39 41.75 123.66 40.66Q120.92 39.58 118.95 37.62Q116.97 35.67 115.84 32.96Q114.72 30.25 114.72 27.03Q114.72 23.80 115.84 21.09Q116.97 18.38 118.95 16.43Q120.92 14.48 123.66 13.39Q126.39 12.30 129.61 12.30Q131.18 12.30 132.81 12.52Q134.45 12.74 135.99 13.22Q137.52 13.70 138.89 14.45Q140.26 15.21 141.27 16.32Q142.29 17.43 142.88 18.90Q143.48 20.36 143.48 22.24ZM156.88 41.19L148.63 41.19L148.63 0L151.81 0L156.88 8.57L156.88 41.19ZM192.16 41.19L183.91 41.19L183.91 37.82Q182.45 39.82 180.38 40.78Q178.32 41.75 175.85 41.75Q172.63 41.75 170.09 40.60Q167.55 39.45 165.80 37.46Q164.04 35.47 163.11 32.79Q162.18 30.10 162.18 27.03Q162.18 23.95 163.11 21.26Q164.04 18.58 165.80 16.59Q167.55 14.60 170.09 13.45Q172.63 12.30 175.85 12.30Q177.49 12.30 178.97 12.79Q180.44 13.28 181.68 14.17Q182.91 15.06 183.85 16.32Q184.79 17.58 185.33 19.12L188.99 12.99L192.16 12.99L192.16 41.19M183.86 27.03Q183.86 25.93 183.75 24.71Q183.64 23.49 183.37 22.29Q183.11 21.09 182.63 20.01Q182.15 18.92 181.41 18.08Q180.66 17.24 179.61 16.75Q178.56 16.26 177.17 16.26Q175.78 16.26 174.76 16.76Q173.73 17.26 173.00 18.10Q172.27 18.95 171.79 20.04Q171.31 21.14 171.04 22.34Q170.78 23.54 170.67 24.74Q170.56 25.95 170.56 27.03Q170.56 28.10 170.67 29.32Q170.78 30.54 171.04 31.74Q171.31 32.93 171.79 34.03Q172.27 35.13 173.00 35.97Q173.73 36.82 174.76 37.32Q175.78 37.82 177.17 37.82Q178.44 37.82 179.43 37.29Q180.42 36.77 181.16 35.89Q181.91 35.01 182.42 33.89Q182.93 32.76 183.25 31.57Q183.57 30.37 183.72 29.19Q183.86 28.00 183.86 27.03ZM227.88 25.02Q227.88 27.88 227.19 30.98Q226.49 34.08 225.24 37.06Q224.00 40.04 222.27 42.66Q220.53 45.29 218.46 47.19L215.36 45.51Q216.02 44.29 216.60 42.77Q217.19 41.26 217.66 39.56Q218.14 37.87 218.52 36.06Q218.90 34.25 219.15 32.48Q219.41 30.71 219.54 29.04Q219.68 27.37 219.68 25.93Q219.68 24.98 219.60 23.89Q219.53 22.80 219.30 21.72Q219.07 20.63 218.68 19.63Q218.29 18.63 217.64 17.87Q216.99 17.11 216.08 16.65Q215.16 16.19 213.92 16.19Q212.70 16.19 211.74 16.74Q210.79 17.29 210.06 18.18Q209.33 19.07 208.80 20.21Q208.28 21.36 207.95 22.57Q207.62 23.78 207.47 24.95Q207.32 26.12 207.32 27.05L207.32 41.19L199.05 41.19L199.05 12.99L202.22 12.99L206.01 19.56Q206.69 17.92 207.71 16.58Q208.74 15.23 210.03 14.28Q211.33 13.33 212.90 12.82Q214.48 12.30 216.31 12.30Q219.24 12.30 221.41 13.26Q223.58 14.21 225.02 15.91Q226.46 17.60 227.17 19.93Q227.88 22.27 227.88 25.02ZM259.35 19.97L255.79 21.39Q254.93 18.70 252.93 17.26Q250.93 15.82 248.12 15.82Q246.61 15.82 245.42 16.30Q244.24 16.77 243.35 17.60Q242.46 18.43 241.83 19.53Q241.21 20.63 240.82 21.88Q240.43 23.12 240.26 24.45Q240.09 25.78 240.09 27.03Q240.09 28.37 240.23 29.74Q240.38 31.10 240.73 32.36Q241.09 33.62 241.67 34.70Q242.26 35.79 243.15 36.60Q244.04 37.40 245.28 37.87Q246.51 38.33 248.12 38.33Q249.41 38.33 250.59 37.94Q251.76 37.55 252.73 36.84Q253.71 36.13 254.47 35.16Q255.22 34.18 255.66 32.98L259.25 34.30Q258.45 36.23 257.12 37.63Q255.79 39.04 254.10 39.95Q252.42 40.87 250.49 41.31Q248.56 41.75 246.58 41.75Q243.38 41.75 240.65 40.66Q237.92 39.58 235.93 37.61Q233.94 35.64 232.81 32.95Q231.69 30.25 231.69 27.03Q231.69 23.78 232.80 21.07Q233.91 18.36 235.89 16.41Q237.87 14.45 240.60 13.38Q243.33 12.30 246.58 12.30Q248.63 12.30 250.59 12.76Q252.54 13.21 254.21 14.15Q255.88 15.09 257.21 16.53Q258.54 17.97 259.35 19.97ZM272.90 6.18Q272.90 7.10 272.55 7.93Q272.19 8.76 271.58 9.38Q270.97 9.99 270.14 10.34Q269.31 10.69 268.38 10.69Q267.46 10.69 266.64 10.34Q265.82 9.99 265.21 9.38Q264.60 8.76 264.25 7.93Q263.89 7.10 263.89 6.18Q263.89 5.25 264.25 4.43Q264.60 3.61 265.21 3.00Q265.82 2.39 266.64 2.04Q267.46 1.68 268.38 1.68Q269.31 1.68 270.14 2.04Q270.97 2.39 271.58 3.00Q272.19 3.61 272.55 4.43Q272.90 5.25 272.90 6.18M272.53 41.19L264.26 41.19L264.26 13.01L272.53 13.01L272.53 41.19Z"/>

</g>
</g>
</g>

</svg>
